<?xml version="1.0" encoding="utf-8"?>
<!-- Generator: Adobe Illustrator 16.0.2, SVG Export Plug-In . SVG Version: 6.00 Build 0)  -->
<!DOCTYPE svg PUBLIC "-//W3C//DTD SVG 1.1//EN" "http://www.w3.org/Graphics/SVG/1.1/DTD/svg11.dtd">
<svg version="1.1" id="Layer_1" xmlns="http://www.w3.org/2000/svg" xmlns:xlink="http://www.w3.org/1999/xlink" x="0px" y="0px"
	 width="48px" height="32px" viewBox="0 0 48 32" enable-background="new 0 0 48 32" xml:space="preserve">
<g>
	<defs>
		<rect id="SVGID_1_" width="48" height="32"/>
	</defs>
	<clipPath id="SVGID_2_">
		<use xlink:href="#SVGID_1_"  overflow="visible"/>
	</clipPath>
	<path clip-path="url(#SVGID_2_)" fill="#929292" d="M37.713,7c-16.01,0-16.01,0-16.01,0c-0.573,0-1.084,0.511-1.084,1.086
		c0,3.446,0,3.446,0,3.446c-1.466,0-1.466,0-1.466,0c0-0.511,0-0.511,0-0.511c0-0.638-0.512-1.148-1.149-1.148
		c-5.038,0-5.038,0-5.038,0c-2.231,0-3.764,3.574-3.764,6.893c0,5.555,0,5.555,0,5.555c0,0.127,0.064,0.255,0.129,0.381
		c0.127,0.065,0.255,0.129,0.383,0.129c2.041,0,2.041,0,2.041,0c0.254,1.213,1.338,2.17,2.614,2.17s2.359-0.957,2.614-2.17
		c1.658,0,1.658,0,1.658,0c0.256,0,0.447-0.191,0.512-0.447c10.396,0,10.396,0,10.396,0c0,1.404,1.212,2.617,2.615,2.617
		c1.467,0,2.679-1.213,2.679-2.617c2.87,0,2.87,0,2.87,0c0.573,0,1.085-0.51,1.085-1.148c0-3.678,0-13.148,0-13.148
		C38.798,7.511,38.286,7,37.713,7z M10.926,13.063h0.063c3.7,0,3.7,0,3.7,0c0,3.192,0,3.192,0,3.192c-4.466,0-4.466,0-4.466,0
		C10.287,15.106,10.543,13.958,10.926,13.063z M14.369,23.979c-0.893,0-1.658-0.767-1.658-1.659c0-0.895,0.766-1.66,1.658-1.66
		c0.894,0,1.658,0.766,1.658,1.66C16.027,23.213,15.263,23.979,14.369,23.979z M18.133,21.809c-1.149,0-1.149,0-1.149,0
		c-0.255-1.213-1.338-2.17-2.614-2.17s-2.36,0.957-2.614,2.17c-1.532,0-1.532,0-1.532,0c0-4.531,0-4.531,0-4.531
		c4.976,0,4.976,0,4.976,0c0.319,0,0.511-0.256,0.511-0.512c0-4.212,0-4.212,0-4.212c0-0.256-0.191-0.511-0.511-0.511
		c-3.764,0-3.764,0-3.764,0c0.446-0.702,0.958-1.149,1.531-1.149c5.038,0,5.038,0,5.038,0c0.064,0,0.129,0.064,0.129,0.128V21.809z
		 M20.619,21.362c-1.466,0-1.466,0-1.466,0c0-8.809,0-8.809,0-8.809c1.466,0,1.466,0,1.466,0V21.362z M32.164,23.979
		c-0.895,0-1.595-0.767-1.595-1.659c0-0.895,0.7-1.66,1.595-1.66c0.955,0,1.658,0.766,1.658,1.66
		C33.822,23.213,33.119,23.979,32.164,23.979z M37.777,21.234c0,0.063,0,0.128-0.064,0.128c-3.062,0-3.062,0-3.062,0
		c-0.382-1.021-1.341-1.724-2.487-1.724c-1.086,0-2.105,0.702-2.488,1.724c-8.036,0-8.036,0-8.036,0c0-2.618,0-2.618,0-2.618h16.138
		C37.777,21.234,37.777,21.234,37.777,21.234z M37.777,17.724c-16.138,0-16.138,0-16.138,0c0-9.638,0-9.638,0-9.638
		s0-0.064,0.063-0.064c16.01,0,16.01,0,16.01,0c0.064,0,0.064,0.064,0.064,0.064C37.777,8.618,37.777,17.724,37.777,17.724z"/>
</g>
</svg>
