<?xml version="1.0" encoding="utf-8"?>
<!-- Generator: Adobe Illustrator 16.0.2, SVG Export Plug-In . SVG Version: 6.00 Build 0)  -->
<!DOCTYPE svg PUBLIC "-//W3C//DTD SVG 1.1//EN" "http://www.w3.org/Graphics/SVG/1.1/DTD/svg11.dtd">
<svg version="1.1" id="Layer_1" xmlns="http://www.w3.org/2000/svg" xmlns:xlink="http://www.w3.org/1999/xlink" x="0px" y="0px"
	 width="48px" height="32px" viewBox="0 0 48 32" enable-background="new 0 0 48 32" xml:space="preserve">
<g>
	<defs>
		<rect id="SVGID_1_" width="48" height="32"/>
	</defs>
	<clipPath id="SVGID_2_">
		<use xlink:href="#SVGID_1_"  overflow="visible"/>
	</clipPath>
	<g clip-path="url(#SVGID_2_)">
		<path fill-rule="evenodd" clip-rule="evenodd" fill="#929292" d="M31.986,12.934c-0.299-0.199-7.047-3.641-7.445-3.84
			c-0.201-0.1-0.35-0.15-0.549-0.15c-0.352,0-0.551,0.15-0.6,0.15c-7.447,3.84-7.447,3.84-7.447,3.84
			c-0.35,0.149-0.749,0.498-0.8,1.047c0,10.072,0,10.072,0,10.072c0,0.498,0.45,0.947,1.001,0.947c1.898,0,1.898,0,1.898,0
			c0.998,0,2.048,0,2.298,0c0.398,0,0.748-0.199,0.85-0.449c0.148-0.199,0.148-0.398,0.148-0.498c0-5.834,0-5.834,0-5.834
			c0-0.1,0.051-0.15,0.15-0.15c5.348,0,5.348,0,5.348,0c0.1,0,0.199,0.051,0.199,0.15c0,5.784,0,5.784,0,5.784c0,0.05,0,0.05,0,0.05
			c0,0.049,0,0.249,0.102,0.498C27.238,24.752,27.59,25,27.939,25c0.049,0,0.049,0,0.049,0c0.6,0,3.848,0,3.848,0
			c0.551,0,0.949-0.449,0.949-0.947c0-2.288,0-10.072,0-10.072C32.785,13.432,32.387,13.083,31.986,12.934z M31.986,24.053
			c0,0.1-0.049,0.15-0.15,0.15c-3.848,0-3.848,0-3.848,0c-0.148,0-0.1,0-0.148-0.051c0-0.051,0-0.1,0-0.1c0-5.834,0-5.834,0-5.834
			c0-0.549-0.451-0.947-1-0.947c-5.348,0-5.348,0-5.348,0c-0.549,0-0.949,0.398-0.949,0.947c0,5.834,0,5.834,0,5.834
			s0,0.1-0.049,0.1c0,0.051,0,0.051-0.15,0.051c-4.197,0-4.197,0-4.197,0c-0.102,0-0.201-0.051-0.201-0.15
			c0-10.072,0-10.072,0-10.072c0-0.1,0.1-0.249,0.35-0.35c7.447-3.838,7.447-3.838,7.447-3.838c0.049,0,0.148-0.051,0.25-0.051
			c0.1,0,0.148,0,0.199,0.051c0.199,0.099,2.049,1.047,3.896,1.994c1.801,0.947,3.6,1.844,3.6,1.844
			c0.25,0.101,0.35,0.25,0.299,0.35C31.986,14.227,31.986,24.053,31.986,24.053z"/>
		<path fill-rule="evenodd" clip-rule="evenodd" fill="#929292" d="M35.285,12.685c0,0-1.049-0.549-2.5-1.298
			c0-1.795,0-1.795,0-1.795c0-0.548-0.398-0.996-0.949-0.996c-1.6,0-1.6,0-1.6,0c-0.498,0-0.947,0.448-0.947,0.996
			c-2.299-1.195-4.449-2.293-4.648-2.442C24.441,7.051,24.191,7,23.992,7c-0.4,0.051-0.65,0.149-0.65,0.149
			c-10.644,5.535-10.644,5.535-10.644,5.535c-0.199,0.099-0.299,0.349-0.15,0.548c0.101,0.199,0.301,0.25,0.5,0.15
			c10.644-5.486,10.644-5.486,10.644-5.486c0.051-0.049,0.15-0.1,0.301-0.1c0.1,0,0.199,0.051,0.299,0.1
			c0.199,0.101,2.648,1.348,5.098,2.645c0.049,0,0.15,0.049,0.248,0.049c0.102,0,0.201-0.049,0.352-0.149
			c0.1-0.1,0.1-0.249,0.1-0.349c0-0.5,0-0.5,0-0.5c0-0.098,0.1-0.198,0.148-0.198c1.6,0,1.6,0,1.6,0c0.102,0,0.15,0.101,0.15,0.198
			c0,1.896,0,1.896,0,1.896c0,0.149,0.051,0.3,0.15,0.399c0.049,0.1,0.15,0.149,0.199,0.149c1.5,0.798,2.6,1.347,2.6,1.347
			c0.049,0.049,0.148,0.049,0.199,0.049c0.15,0,0.25-0.049,0.35-0.199C35.586,13.033,35.484,12.783,35.285,12.685z"/>
	</g>
	<rect clip-path="url(#SVGID_2_)" fill="none" width="48" height="32"/>
</g>
</svg>
