<?xml version="1.0" encoding="utf-8"?>
<!-- Generator: Adobe Illustrator 16.0.2, SVG Export Plug-In . SVG Version: 6.00 Build 0)  -->
<!DOCTYPE svg PUBLIC "-//W3C//DTD SVG 1.1//EN" "http://www.w3.org/Graphics/SVG/1.1/DTD/svg11.dtd">
<svg version="1.1" id="Layer_1" xmlns="http://www.w3.org/2000/svg" xmlns:xlink="http://www.w3.org/1999/xlink" x="0px" y="0px"
	 width="48px" height="32px" viewBox="0 0 48 32" enable-background="new 0 0 48 32" xml:space="preserve">
<g>
	<defs>
		<rect id="SVGID_1_" width="48" height="32"/>
	</defs>
	<clipPath id="SVGID_2_">
		<use xlink:href="#SVGID_1_"  overflow="visible"/>
	</clipPath>
	<g clip-path="url(#SVGID_2_)">
		<g>
			<path fill="#929292" d="M28.896,18.044c-0.867,1.13-1.602,2.392-1.992,3.087c-0.174-0.305-0.434-0.695-0.781-1.043
				c-0.129-0.131-0.346-0.131-0.52,0c-0.129,0.13-0.129,0.348,0,0.478c0.305,0.304,0.563,0.695,0.736,0.957
				c0.088,0.13,0.131,0.261,0.174,0.348S26.557,22,26.557,22c0.088,0.131,0.174,0.218,0.305,0.218c0.043,0,0.043,0,0.043,0
				c0.129,0,0.217-0.087,0.303-0.174c0-0.044,0.26-0.478,0.65-1.175c0.434-0.695,0.998-1.564,1.604-2.391
				c0.129-0.174,0.086-0.392-0.088-0.478C29.244,17.87,29.027,17.913,28.896,18.044z"/>
			<path fill="#929292" d="M21.66,10.957c4.68,0,4.68,0,4.68,0c0.26,0,0.477-0.218,0.477-0.479c0-0.522-0.303-0.956-0.303-0.956
				c-1.17-2.043-1.17-2.043-1.17-2.043S25.084,7,24.65,7c-1.3,0-1.3,0-1.3,0c-0.433,0-0.694,0.479-0.694,0.479
				c-1.169,2.043-1.169,2.043-1.169,2.043s-0.304,0.434-0.304,0.956C21.184,10.739,21.357,10.957,21.66,10.957z M24.001,7.739
				c0.521,0,0.952,0.392,0.952,0.913c0,0.522-0.432,0.957-0.952,0.957s-0.954-0.435-0.954-0.957
				C23.047,8.13,23.48,7.739,24.001,7.739z"/>
			<path fill="#929292" d="M29.373,12.478c-0.129-0.13-0.346-0.087-0.477,0.043c-0.867,1.174-1.602,2.392-1.992,3.087
				c-0.174-0.304-0.434-0.695-0.781-1.042c-0.129-0.132-0.346-0.132-0.52,0c-0.129,0.129-0.129,0.347,0,0.521
				c0.305,0.261,0.563,0.652,0.736,0.914c0.088,0.131,0.131,0.26,0.174,0.348c0.043,0.086,0.043,0.13,0.043,0.13
				c0.088,0.13,0.174,0.218,0.305,0.218c0.043,0,0.043,0,0.043,0c0.129,0,0.217-0.088,0.303-0.174c0,0,0.26-0.479,0.65-1.175
				c0.434-0.695,0.998-1.565,1.604-2.391C29.59,12.827,29.547,12.608,29.373,12.478z"/>
			<path fill="#929292" d="M24.348,18.782c-5.549,0-5.549,0-5.549,0c-0.172,0-0.346,0.174-0.346,0.348
				c0,0.218,0.174,0.349,0.346,0.349c5.549,0,5.549,0,5.549,0c0.174,0,0.346-0.131,0.346-0.349
				C24.693,18.956,24.521,18.782,24.348,18.782z"/>
			<path fill="#929292" d="M24.348,13.304c-5.549,0-5.549,0-5.549,0c-0.172,0-0.346,0.13-0.346,0.348
				c0,0.174,0.174,0.348,0.346,0.348c5.549,0,5.549,0,5.549,0c0.174,0,0.346-0.174,0.346-0.348
				C24.693,13.435,24.521,13.304,24.348,13.304z"/>
			<path fill="#929292" d="M30.111,9.652c-2.514,0-2.514,0-2.514,0c-0.174,0-0.348,0.174-0.348,0.348
				c0,0.218,0.174,0.349,0.348,0.349c2.514,0,2.514,0,2.514,0c0.477,0,0.822,0.391,0.822,0.826c0,0.2,0,12.304,0,12.304
				c0,0.479-0.346,0.826-0.822,0.826c-12.266,0-12.266,0-12.266,0c-0.433,0-0.779-0.348-0.779-0.826c0-12.304,0-12.304,0-12.304
				c0-0.436,0.347-0.826,0.779-0.826c2.514,0,2.514,0,2.514,0c0.174,0,0.348-0.131,0.348-0.349c0-0.174-0.174-0.348-0.348-0.348
				c-2.514,0-2.514,0-2.514,0c-0.822,0-1.473,0.696-1.473,1.522c0,12.304,0,12.304,0,12.304c0,0.826,0.65,1.521,1.473,1.521
				c12.266,0,12.266,0,12.266,0c0.865,0,1.516-0.695,1.516-1.521c0-5.271,0-12.304,0-12.304
				C31.627,10.348,30.977,9.652,30.111,9.652z"/>
			<path fill="#929292" d="M24.348,15.131c-5.549,0-5.549,0-5.549,0c-0.172,0-0.346,0.13-0.346,0.348
				c0,0.174,0.174,0.348,0.346,0.348c5.549,0,5.549,0,5.549,0c0.174,0,0.346-0.174,0.346-0.348
				C24.693,15.261,24.521,15.131,24.348,15.131z"/>
			<path fill="#929292" d="M24.348,20.609c-5.549,0-5.549,0-5.549,0c-0.172,0-0.346,0.174-0.346,0.348
				c0,0.217,0.174,0.348,0.346,0.348c5.549,0,5.549,0,5.549,0c0.174,0,0.346-0.131,0.346-0.348
				C24.693,20.783,24.521,20.609,24.348,20.609z"/>
		</g>
	</g>
</g>
</svg>
