<?xml version="1.0" encoding="utf-8"?>
<!-- Generator: Adobe Illustrator 16.0.2, SVG Export Plug-In . SVG Version: 6.00 Build 0)  -->
<!DOCTYPE svg PUBLIC "-//W3C//DTD SVG 1.1//EN" "http://www.w3.org/Graphics/SVG/1.1/DTD/svg11.dtd">
<svg version="1.1" id="Layer_1" xmlns="http://www.w3.org/2000/svg" xmlns:xlink="http://www.w3.org/1999/xlink" x="0px" y="0px"
	 width="16px" height="16px" viewBox="0 0 16 16" enable-background="new 0 0 16 16" xml:space="preserve">
<path fill-rule="evenodd" clip-rule="evenodd" fill="#BFBFBF" d="M13.758,7.554L8.389,2.171c-0.227-0.228-0.567-0.228-0.793,0
	L2.241,7.554c-0.226,0.227-0.226,0.683,0,0.909l5.355,5.366c0.226,0.228,0.566,0.228,0.793,0l5.369-5.366
	C13.984,8.236,13.984,7.781,13.758,7.554z M8.869,9.582V8.105h-2.18c-0.119,0-0.214,0.096-0.214,0.214v1.601H5.327V7.521
	c0-0.34,0.227-0.567,0.565-0.567h2.977V5.479l2.038,2.042L8.869,9.582z"/>
</svg>
