<?xml version="1.0" encoding="utf-8"?>
<!-- Generator: Adobe Illustrator 16.0.2, SVG Export Plug-In . SVG Version: 6.00 Build 0)  -->
<!DOCTYPE svg PUBLIC "-//W3C//DTD SVG 1.1//EN" "http://www.w3.org/Graphics/SVG/1.1/DTD/svg11.dtd">
<svg version="1.1" id="Layer_1" xmlns="http://www.w3.org/2000/svg" xmlns:xlink="http://www.w3.org/1999/xlink" x="0px" y="0px"
	 width="48px" height="48px" viewBox="0 0 48 48" enable-background="new 0 0 48 48" xml:space="preserve">
<g>
	<defs>
		<rect id="SVGID_1_" width="48" height="48"/>
	</defs>
	<clipPath id="SVGID_2_">
		<use xlink:href="#SVGID_1_"  overflow="visible"/>
	</clipPath>
	<path clip-path="url(#SVGID_2_)" fill-rule="evenodd" clip-rule="evenodd" fill="#929292" d="M19.34,7.5
		c-0.45-0.225-1.016,0-1.241,0.452C4.78,38.146,4.78,38.146,4.78,38.146c-0.228,0.564,0,1.018,0.45,1.244
		c0.113,0.113,0.227,0.113,0.339,0.113c0.338,0,0.677-0.227,0.791-0.564C19.79,8.632,19.79,8.632,19.79,8.632
		C20.018,8.18,19.79,7.613,19.34,7.5L19.34,7.5z M23.968,7.387c-0.452,0-0.902,0.34-0.902,0.905c0,1.81,0,1.81,0,1.81
		c0,0.453,0.45,0.905,0.902,0.905c0.564,0,0.903-0.452,0.903-0.905c0-1.81,0-1.81,0-1.81C24.871,7.727,24.532,7.387,23.968,7.387
		L23.968,7.387z M23.968,25.254c-0.452,0-0.902,0.34-0.902,0.904c0,3.961,0,3.961,0,3.961c0,0.564,0.45,0.904,0.902,0.904
		c0.564,0,0.903-0.34,0.903-0.904c0-3.961,0-3.961,0-3.961C24.871,25.594,24.532,25.254,23.968,25.254L23.968,25.254z
		 M23.968,15.191c-0.452,0-0.902,0.451-0.902,0.904c0,4.07,0,4.07,0,4.07c0,0.451,0.45,0.904,0.902,0.904
		c0.564,0,0.903-0.453,0.903-0.904c0-4.07,0-4.07,0-4.07C24.871,15.643,24.532,15.191,23.968,15.191L23.968,15.191z M23.968,35.207
		c-0.452,0-0.902,0.453-0.902,0.904c0,1.809,0,1.809,0,1.809c0,0.566,0.45,0.906,0.902,0.906c0.564,0,0.903-0.34,0.903-0.906
		c0-1.809,0-1.809,0-1.809C24.871,35.66,24.532,35.207,23.968,35.207L23.968,35.207z M31.079,10.667
		c-1.241-2.715-1.241-2.715-1.241-2.715C29.612,7.5,29.16,7.275,28.597,7.5c-0.452,0.113-0.566,0.68-0.452,1.132
		c1.241,2.714,1.241,2.714,1.241,2.714c0.227,0.338,0.452,0.565,0.791,0.565c0.225,0,0.336,0,0.452,0
		C31.079,11.684,31.304,11.119,31.079,10.667L31.079,10.667z M43.268,38.146C32.545,14.059,32.545,14.059,32.545,14.059
		c-0.225-0.451-0.789-0.677-1.241-0.451c-0.452,0.227-0.563,0.679-0.452,1.131c10.723,24.201,10.723,24.201,10.723,24.201
		c0.116,0.338,0.455,0.564,0.791,0.564c0.114,0,0.226,0,0.452-0.113C43.268,39.164,43.382,38.711,43.268,38.146L43.268,38.146z"/>
</g>
</svg>
