<?xml version="1.0" encoding="utf-8"?>
<!-- Generator: Adobe Illustrator 16.0.2, SVG Export Plug-In . SVG Version: 6.00 Build 0)  -->
<!DOCTYPE svg PUBLIC "-//W3C//DTD SVG 1.1//EN" "http://www.w3.org/Graphics/SVG/1.1/DTD/svg11.dtd">
<svg version="1.1" id="Layer_1" xmlns="http://www.w3.org/2000/svg" xmlns:xlink="http://www.w3.org/1999/xlink" x="0px" y="0px"
	 width="32px" height="32px" viewBox="0 0 32 32" enable-background="new 0 0 32 32" xml:space="preserve">
<g>
	<defs>
		<rect id="SVGID_1_" width="32" height="32"/>
	</defs>
	<clipPath id="SVGID_2_">
		<use xlink:href="#SVGID_1_"  overflow="visible"/>
	</clipPath>
	<g clip-path="url(#SVGID_2_)">
		<path fill="#CCCCCC" d="M22.815,11.851h-0.298c-0.102-0.412-0.265-0.908-0.53-1.409c-0.865-1.635-2.417-2.534-4.368-2.534
			c-2.427,0-4.178,1.37-4.806,3.759c-0.148,0.564,0.188,1.143,0.754,1.291c0.564,0.147,1.143-0.189,1.291-0.755
			c0.573-2.18,2.22-2.18,2.761-2.18c1.158,0,1.967,0.443,2.472,1.356c0.422,0.765,0.472,1.573,0.473,1.576
			c0.025,0.564,0.491,1.01,1.057,1.01h1.195c1.368,0,2.287,0.848,2.287,2.108c0,1.016-0.716,2.108-2.287,2.108h-5.878h-3.681H5.841
			c-0.585,0-1.058,0.474-1.058,1.058c0,0.583,0.473,1.058,1.058,1.058h7.416h3.681h5.878c2.509,0,4.401-1.816,4.401-4.224
			C27.217,13.626,25.365,11.851,22.815,11.851z"/>
		<path fill="#CCCCCC" d="M8.537,16.5h8.847c0.584,0,1.058-0.473,1.058-1.058c0-0.583-0.474-1.057-1.058-1.057H8.537
			c-0.583,0-1.057,0.474-1.057,1.057C7.48,16.027,7.954,16.5,8.537,16.5z"/>
		<path fill="#CCCCCC" d="M21.176,21.979H10.078c-0.584,0-1.057,0.473-1.057,1.057s0.473,1.059,1.057,1.059h11.098
			c0.583,0,1.057-0.475,1.057-1.059S21.759,21.979,21.176,21.979z"/>
	</g>
</g>
</svg>
