<?xml version="1.0" encoding="utf-8"?>
<!-- Generator: Adobe Illustrator 16.0.2, SVG Export Plug-In . SVG Version: 6.00 Build 0)  -->
<!DOCTYPE svg PUBLIC "-//W3C//DTD SVG 1.1//EN" "http://www.w3.org/Graphics/SVG/1.1/DTD/svg11.dtd">
<svg version="1.1" id="Layer_1" xmlns="http://www.w3.org/2000/svg" xmlns:xlink="http://www.w3.org/1999/xlink" x="0px" y="0px"
	 width="32px" height="32px" viewBox="0 0 32 32" enable-background="new 0 0 32 32" xml:space="preserve">
<g>
	<defs>
		<rect id="SVGID_1_" width="32" height="32"/>
	</defs>
	<clipPath id="SVGID_2_">
		<use xlink:href="#SVGID_1_"  overflow="visible"/>
	</clipPath>
	<g clip-path="url(#SVGID_2_)">
		<g>
			<path fill-rule="evenodd" clip-rule="evenodd" fill="#CCCCCC" d="M16.001,9.144c-3.792,0-6.858,3.067-6.858,6.855
				c0,3.794,3.066,6.86,6.858,6.86c3.79,0,6.856-3.066,6.856-6.86C22.857,12.211,19.791,9.144,16.001,9.144L16.001,9.144z
				 M16.001,20.628c-2.565,0-4.628-2.063-4.628-4.629c0-2.563,2.063-4.624,4.628-4.624c2.563,0,4.626,2.062,4.626,4.624
				C20.627,18.564,18.564,20.628,16.001,20.628L16.001,20.628z"/>
			<path fill-rule="evenodd" clip-rule="evenodd" fill="#CCCCCC" d="M16.001,8.859c0.628,0,1.142-0.533,1.142-1.122
				c0-2.616,0-2.616,0-2.616c0-0.639-0.514-1.118-1.142-1.118c-0.631,0-1.144,0.479-1.144,1.118c0,2.616,0,2.616,0,2.616
				C14.857,8.379,15.37,8.859,16.001,8.859L16.001,8.859z"/>
			<path fill-rule="evenodd" clip-rule="evenodd" fill="#CCCCCC" d="M16.001,22.859c-0.631,0-1.144,0.563-1.144,1.185
				c0,2.769,0,2.769,0,2.769c0,0.678,0.513,1.186,1.144,1.186c0.628,0,1.142-0.508,1.142-1.186c0-2.769,0-2.769,0-2.769
				C17.143,23.423,16.629,22.859,16.001,22.859L16.001,22.859z"/>
			<path fill-rule="evenodd" clip-rule="evenodd" fill="#CCCCCC" d="M8.538,16.802c0.212-0.229,0.32-0.515,0.32-0.803
				c0-0.627-0.534-1.142-1.122-1.142c-2.614,0-2.614,0-2.614,0c-0.641,0-1.121,0.515-1.121,1.142c0,0.632,0.48,1.144,1.121,1.144
				c2.614,0,2.614,0,2.614,0C8.057,17.143,8.324,17.03,8.538,16.802L8.538,16.802z"/>
			<path fill-rule="evenodd" clip-rule="evenodd" fill="#CCCCCC" d="M26.813,14.857c-2.77,0-2.77,0-2.77,0
				c-0.621,0-1.186,0.515-1.186,1.142c0,0.632,0.564,1.144,1.186,1.144c2.77,0,2.77,0,2.77,0c0.679,0,1.188-0.512,1.188-1.144
				C28,15.372,27.491,14.857,26.813,14.857L26.813,14.857z"/>
			<path fill-rule="evenodd" clip-rule="evenodd" fill="#CCCCCC" d="M10.273,20.572c-0.272,0-0.548,0.106-0.768,0.316
				c-1.923,1.841-1.923,1.841-1.923,1.841c-0.438,0.423-0.438,1.106,0,1.525c0.221,0.212,0.493,0.316,0.769,0.316
				c0.331,0,0.604-0.104,0.824-0.316c1.924-1.841,1.924-1.841,1.924-1.841c0.164-0.212,0.33-0.475,0.33-0.737
				c0-0.315-0.166-0.577-0.33-0.788C10.88,20.679,10.604,20.572,10.273,20.572L10.273,20.572z"/>
			<path fill-rule="evenodd" clip-rule="evenodd" fill="#CCCCCC" d="M21.726,11.429c0.272,0,0.548-0.112,0.769-0.336
				c1.924-1.976,1.924-1.976,1.924-1.976c0.439-0.449,0.439-1.184,0-1.634c-0.223-0.228-0.495-0.339-0.771-0.339
				c-0.331,0-0.604,0.111-0.823,0.339c-1.925,1.974-1.925,1.974-1.925,1.974c-0.22,0.225-0.328,0.507-0.328,0.787
				c0,0.338,0.108,0.622,0.328,0.849C21.119,11.26,21.395,11.429,21.726,11.429L21.726,11.429z"/>
			<path fill-rule="evenodd" clip-rule="evenodd" fill="#CCCCCC" d="M22.494,20.889c-0.221-0.21-0.496-0.316-0.769-0.316
				c-0.331,0-0.606,0.106-0.826,0.316c-0.22,0.211-0.328,0.473-0.328,0.788c0,0.263,0.108,0.525,0.328,0.737
				c1.925,1.841,1.925,1.841,1.925,1.841c0.22,0.212,0.492,0.316,0.823,0.316c0.275,0,0.604-0.104,0.771-0.316
				c0.439-0.419,0.439-1.103,0-1.525L22.494,20.889L22.494,20.889L22.494,20.889z"/>
			<path fill-rule="evenodd" clip-rule="evenodd" fill="#CCCCCC" d="M9.506,11.093c0.22,0.167,0.495,0.336,0.768,0.336
				c0.331,0,0.606-0.112,0.826-0.336c0.22-0.227,0.33-0.511,0.33-0.849c0-0.28-0.11-0.563-0.33-0.787
				C9.176,7.483,9.176,7.483,9.176,7.483C8.955,7.256,8.683,7.145,8.352,7.145c-0.275,0-0.548,0.111-0.769,0.339
				c-0.438,0.45-0.438,1.185,0,1.634L9.506,11.093L9.506,11.093L9.506,11.093z"/>
		</g>
	</g>
</g>
</svg>
