<?xml version="1.0" encoding="utf-8"?>
<!-- Generator: Adobe Illustrator 16.0.2, SVG Export Plug-In . SVG Version: 6.00 Build 0)  -->
<!DOCTYPE svg PUBLIC "-//W3C//DTD SVG 1.1//EN" "http://www.w3.org/Graphics/SVG/1.1/DTD/svg11.dtd">
<svg version="1.1" id="Layer_1" xmlns="http://www.w3.org/2000/svg" xmlns:xlink="http://www.w3.org/1999/xlink" x="0px" y="0px"
	 width="32px" height="32px" viewBox="0 0 32 32" enable-background="new 0 0 32 32" xml:space="preserve">
<g>
	<defs>
		<rect id="SVGID_1_" width="32" height="32"/>
	</defs>
	<clipPath id="SVGID_2_">
		<use xlink:href="#SVGID_1_"  overflow="visible"/>
	</clipPath>
	<g id="Dibujo_26_" clip-path="url(#SVGID_2_)">
		<g>
			<g>
				<path fill="#CCCCCC" d="M23.447,13.932c-0.208,0-0.459,0.033-0.695,0.076c-0.87-2.969-3.58-5.043-6.752-5.043
					c-3.171,0-5.881,2.074-6.751,5.043c-0.236-0.043-0.487-0.076-0.696-0.076C6.042,13.932,4,15.974,4,18.482
					c0,2.512,2.042,4.553,4.553,4.553h14.895c2.512,0,4.553-2.041,4.553-4.553C28,15.974,25.959,13.932,23.447,13.932z
					 M23.447,21.379H8.553c-1.598,0-2.897-1.299-2.897-2.896c0-1.597,1.3-2.896,2.897-2.896c0.113,0,0.298,0.03,0.492,0.066v0.762
					c0,0.457,0.372,0.826,0.829,0.826s0.827-0.369,0.827-0.826V15.08c0.446-2.587,2.664-4.458,5.299-4.458
					c2.637,0,4.855,1.874,5.301,4.461v1.332c0,0.457,0.37,0.826,0.827,0.826s0.829-0.369,0.829-0.826v-0.76
					c0.193-0.038,0.379-0.068,0.49-0.068c1.599,0,2.898,1.299,2.898,2.896C26.346,20.08,25.046,21.379,23.447,21.379z"/>
			</g>
		</g>
	</g>
</g>
</svg>
