<?xml version="1.0" encoding="utf-8"?>
<!-- Generator: Adobe Illustrator 16.0.2, SVG Export Plug-In . SVG Version: 6.00 Build 0)  -->
<!DOCTYPE svg PUBLIC "-//W3C//DTD SVG 1.1//EN" "http://www.w3.org/Graphics/SVG/1.1/DTD/svg11.dtd">
<svg version="1.1" id="Layer_1" xmlns="http://www.w3.org/2000/svg" xmlns:xlink="http://www.w3.org/1999/xlink" x="0px" y="0px"
	 width="48px" height="32px" viewBox="0 0 48 32" enable-background="new 0 0 48 32" xml:space="preserve">
<g>
	<defs>
		<rect id="SVGID_1_" width="48" height="32"/>
	</defs>
	<clipPath id="SVGID_2_">
		<use xlink:href="#SVGID_1_"  overflow="visible"/>
	</clipPath>
	<path clip-path="url(#SVGID_2_)" fill="#0B79FF" d="M37.713,7c-16.01,0-16.01,0-16.01,0c-0.574,0-1.084,0.511-1.084,1.086
		c0,3.446,0,3.446,0,3.446c-1.467,0-1.467,0-1.467,0c0-0.51,0-0.51,0-0.51c0-0.639-0.512-1.148-1.148-1.148
		c-5.039,0-5.039,0-5.039,0c-2.23,0-3.764,3.574-3.764,6.893c0,5.555,0,5.555,0,5.555c0,0.127,0.064,0.255,0.129,0.381
		c0.127,0.065,0.256,0.129,0.383,0.129c2.041,0,2.041,0,2.041,0c0.254,1.213,1.338,2.17,2.615,2.17c1.275,0,2.359-0.957,2.613-2.17
		c1.658,0,1.658,0,1.658,0c0.256,0,0.447-0.191,0.512-0.447c10.396,0,10.396,0,10.396,0c0,1.404,1.211,2.617,2.615,2.617
		c1.467,0,2.678-1.213,2.678-2.617c2.871,0,2.871,0,2.871,0c0.572,0,1.084-0.51,1.084-1.148c0-3.678,0-13.149,0-13.149
		C38.797,7.511,38.285,7,37.713,7z M10.223,16.256c0.064-1.15,0.32-2.299,0.703-3.192h0.063c3.699,0,3.699,0,3.699,0
		c0,3.192,0,3.192,0,3.192C10.223,16.256,10.223,16.256,10.223,16.256z M14.369,23.979c-0.893,0-1.658-0.767-1.658-1.659
		c0-0.895,0.766-1.66,1.658-1.66s1.658,0.766,1.658,1.66C16.027,23.213,15.262,23.979,14.369,23.979z M20.619,21.362
		c-1.467,0-1.467,0-1.467,0c0-8.81,0-8.81,0-8.81c1.467,0,1.467,0,1.467,0V21.362z M32.164,23.979c-0.895,0-1.596-0.767-1.596-1.659
		c0-0.895,0.701-1.66,1.596-1.66c0.955,0,1.658,0.766,1.658,1.66C33.822,23.213,33.119,23.979,32.164,23.979z"/>
</g>
</svg>
