<?xml version="1.0" encoding="utf-8"?>
<!-- Generator: Adobe Illustrator 16.0.2, SVG Export Plug-In . SVG Version: 6.00 Build 0)  -->
<!DOCTYPE svg PUBLIC "-//W3C//DTD SVG 1.1//EN" "http://www.w3.org/Graphics/SVG/1.1/DTD/svg11.dtd">
<svg version="1.1" id="Layer_1" xmlns="http://www.w3.org/2000/svg" xmlns:xlink="http://www.w3.org/1999/xlink" x="0px" y="0px"
	 width="48px" height="32px" viewBox="0 0 48 32" enable-background="new 0 0 48 32" xml:space="preserve">
<g>
	<defs>
		<rect id="SVGID_1_" width="48" height="32"/>
	</defs>
	<clipPath id="SVGID_2_">
		<use xlink:href="#SVGID_1_"  overflow="visible"/>
	</clipPath>
	<path clip-path="url(#SVGID_2_)" fill="#0B79FF" d="M30.111,9.652c-0.279,0-0.523,0-0.744,0c-1.766,0-1.77,0-1.77,0h-1.01
		c-0.041-0.076-0.074-0.131-0.074-0.131c-1.17-2.043-1.17-2.043-1.17-2.043s-0.26-0.479-0.694-0.479c-1.3,0-1.3,0-1.3,0
		c-0.433,0-0.694,0.479-0.694,0.479c-1.169,2.043-1.169,2.043-1.169,2.043s-0.034,0.055-0.075,0.131h-1.053
		c-0.808,0-1.354,0-1.726,0c-0.786,0-0.788,0-0.788,0c-0.822,0-1.473,0.695-1.473,1.521c0,12.305,0,12.305,0,12.305
		c0,0.826,0.65,1.521,1.473,1.521c0.271,0,0.529,0,0.788,0c6.869,0,9.628,0,10.734,0c0.74,0,0.744,0,0.744,0
		c0.865,0,1.516-0.695,1.516-1.521c0-5.271,0-12.305,0-12.305C31.627,10.348,30.977,9.652,30.111,9.652z M24,7.739
		c0.521,0,0.953,0.391,0.953,0.912c0,0.522-0.433,0.958-0.953,0.958s-0.954-0.436-0.954-0.958C23.046,8.13,23.48,7.739,24,7.739z
		 M24.347,21.305c0,0,0,0-5.549,0c-0.172,0-0.346-0.131-0.346-0.348c0-0.174,0.174-0.348,0.346-0.348c0,0,0,0,5.549,0
		c0.174,0,0.346,0.174,0.346,0.348C24.693,21.174,24.521,21.305,24.347,21.305z M24.347,19.479c0,0,0,0-5.549,0
		c-0.172,0-0.346-0.131-0.346-0.348c0-0.174,0.174-0.348,0.346-0.348c0,0,0,0,5.549,0c0.174,0,0.346,0.174,0.346,0.348
		C24.693,19.348,24.521,19.479,24.347,19.479z M24.347,15.826c0,0,0,0-5.549,0c-0.172,0-0.346-0.174-0.346-0.348
		c0-0.218,0.174-0.348,0.346-0.348c0,0,0,0,5.549,0c0.174,0,0.346,0.13,0.346,0.348C24.693,15.652,24.521,15.826,24.347,15.826z
		 M24.347,14c0,0,0,0-5.549,0c-0.172,0-0.346-0.174-0.346-0.348c0-0.218,0.174-0.348,0.346-0.348c0,0,0,0,5.549,0
		c0.174,0,0.346,0.13,0.346,0.348C24.693,13.826,24.521,14,24.347,14z M29.461,18.479c-0.605,0.826-1.17,1.695-1.604,2.391
		c-0.391,0.697-0.65,1.131-0.65,1.175c-0.086,0.087-0.174,0.174-0.303,0.174c0,0,0,0-0.043,0c-0.131,0-0.217-0.087-0.305-0.218
		c0,0,0-0.043-0.043-0.13s-0.086-0.218-0.174-0.348c-0.174-0.262-0.432-0.653-0.736-0.957c-0.129-0.13-0.129-0.348,0-0.478
		c0.174-0.131,0.391-0.131,0.52,0c0.348,0.348,0.607,0.738,0.781,1.043c0.391-0.695,1.125-1.957,1.992-3.087
		c0.131-0.13,0.348-0.174,0.477-0.044C29.547,18.088,29.59,18.305,29.461,18.479z M29.461,12.957
		c-0.605,0.825-1.17,1.695-1.604,2.391c-0.391,0.697-0.65,1.174-0.65,1.174c-0.086,0.088-0.174,0.174-0.303,0.174c0,0,0,0-0.043,0
		c-0.131,0-0.217-0.086-0.305-0.217c0,0,0-0.043-0.043-0.131c-0.043-0.086-0.086-0.217-0.174-0.348
		c-0.174-0.261-0.432-0.652-0.736-0.913c-0.129-0.174-0.129-0.392,0-0.521c0.174-0.132,0.391-0.132,0.52,0
		c0.348,0.347,0.607,0.738,0.781,1.042c0.391-0.695,1.125-1.913,1.992-3.087c0.131-0.131,0.348-0.174,0.477-0.043
		C29.547,12.608,29.59,12.826,29.461,12.957z"/>
</g>
</svg>
