<?xml version="1.0" encoding="utf-8"?>
<!-- Generator: Adobe Illustrator 16.0.2, SVG Export Plug-In . SVG Version: 6.00 Build 0)  -->
<!DOCTYPE svg PUBLIC "-//W3C//DTD SVG 1.1//EN" "http://www.w3.org/Graphics/SVG/1.1/DTD/svg11.dtd">
<svg version="1.1" id="Layer_1" xmlns="http://www.w3.org/2000/svg" xmlns:xlink="http://www.w3.org/1999/xlink" x="0px" y="0px"
	 width="48px" height="32px" viewBox="0 0 48 32" enable-background="new 0 0 48 32" xml:space="preserve">
<g>
	<defs>
		<rect id="SVGID_1_" width="48" height="32"/>
	</defs>
	<clipPath id="SVGID_2_">
		<use xlink:href="#SVGID_1_"  overflow="visible"/>
	</clipPath>
	<path clip-path="url(#SVGID_2_)" fill-rule="evenodd" clip-rule="evenodd" fill="#433D3F" d="M37.79,18.745v2.489
		c0,0.064,0,0.127-0.064,0.127h-3.063c-0.385-1.021-1.342-1.723-2.49-1.723c-1.085,0-2.107,0.701-2.49,1.723h-8.044v-2.616H37.79z
		 M32.172,23.979c-0.895,0-1.597-0.766-1.597-1.66c0-0.893,0.702-1.658,1.597-1.658c0.957,0,1.66,0.766,1.66,1.658
		C33.832,23.213,33.129,23.979,32.172,23.979 M20.616,21.361h-1.468v-8.809h1.468V21.361z M18.127,21.809h-1.149
		c-0.256-1.213-1.341-2.17-2.617-2.17s-2.362,0.957-2.618,2.17h-1.531v-4.531h4.979c0.319,0,0.511-0.256,0.511-0.512v-4.213
		c0-0.255-0.191-0.51-0.511-0.51h-3.767c0.447-0.703,0.957-1.148,1.532-1.148H18c0.063,0,0.127,0.063,0.127,0.127V21.809z
		 M14.36,23.979c-0.894,0-1.66-0.766-1.66-1.66c0-0.893,0.767-1.658,1.66-1.658s1.659,0.766,1.659,1.658
		C16.02,23.213,15.254,23.979,14.36,23.979 M10.913,13.063h0.063h3.703v3.191h-4.469C10.274,15.106,10.529,13.958,10.913,13.063
		 M38.3,10.319c0.32,0,0.511-0.191,0.511-0.51V8.085C38.811,7.51,38.3,7,37.726,7H21.702c-0.575,0-1.086,0.511-1.086,1.085v3.447
		h-1.468v-0.51c0-0.639-0.512-1.149-1.148-1.149h-5.044c-2.234,0-3.767,3.575-3.767,6.894v5.553c0,0.129,0.063,0.256,0.127,0.383
		C9.444,22.766,9.572,22.83,9.7,22.83h2.042C11.998,24.043,13.084,25,14.36,25s2.361-0.957,2.617-2.17h1.659
		c0.256,0,0.448-0.191,0.512-0.447h10.406c0,1.404,1.213,2.617,2.617,2.617c1.469,0,2.682-1.213,2.682-2.617h2.872
		c0.574,0,1.085-0.51,1.085-1.148v-9.384c0-0.319-0.19-0.511-0.511-0.511c-0.255,0-0.51,0.192-0.51,0.511v5.873H21.638V8.085
		c0,0,0-0.064,0.064-0.064h16.023c0.064,0,0.064,0.064,0.064,0.064v1.724C37.79,10.127,38.045,10.319,38.3,10.319"/>
</g>
</svg>
