<?xml version="1.0" encoding="utf-8"?>
<!-- Generator: Adobe Illustrator 16.0.2, SVG Export Plug-In . SVG Version: 6.00 Build 0)  -->
<!DOCTYPE svg PUBLIC "-//W3C//DTD SVG 1.1//EN" "http://www.w3.org/Graphics/SVG/1.1/DTD/svg11.dtd">
<svg version="1.1" id="Layer_1" xmlns="http://www.w3.org/2000/svg" xmlns:xlink="http://www.w3.org/1999/xlink" x="0px" y="0px"
	 width="48px" height="48px" viewBox="0 0 48 48" enable-background="new 0 0 48 48" xml:space="preserve">
<g>
	<defs>
		<rect id="SVGID_1_" width="48" height="48"/>
	</defs>
	<clipPath id="SVGID_2_">
		<use xlink:href="#SVGID_1_"  overflow="visible"/>
	</clipPath>
	<path clip-path="url(#SVGID_2_)" fill-rule="evenodd" clip-rule="evenodd" fill="#FFC000" d="M30.221,7.49H17.382l-9.464,9.488
		v13.268l9.464,9.154h13.17l9.531-9.486V16.979L30.221,7.49L30.221,7.49L30.221,7.49z M23.801,32.966
		c-1.322,0-2.382-1.062-2.382-2.388c0-1.395,1.06-2.39,2.382-2.39c1.392,0,2.383,0.995,2.383,2.39
		C26.184,31.904,25.192,32.966,23.801,32.966L23.801,32.966z M25.522,25.139h-3.374V14.656h3.374V25.139L25.522,25.139
		L25.522,25.139z"/>
</g>
</svg>
