<?xml version="1.0" encoding="utf-8"?>
<!-- Generator: Adobe Illustrator 16.0.2, SVG Export Plug-In . SVG Version: 6.00 Build 0)  -->
<!DOCTYPE svg PUBLIC "-//W3C//DTD SVG 1.1//EN" "http://www.w3.org/Graphics/SVG/1.1/DTD/svg11.dtd">
<svg version="1.1" id="Layer_1" xmlns="http://www.w3.org/2000/svg" xmlns:xlink="http://www.w3.org/1999/xlink" x="0px" y="0px"
	 width="32px" height="32px" viewBox="0 0 32 32" enable-background="new 0 0 32 32" xml:space="preserve">
<g>
	<path fill-rule="evenodd" clip-rule="evenodd" fill="#002661" d="M9.913,13.357c-1.282,0.469-2.747-0.208-3.218-1.483
		c-0.47-1.303,0.183-2.734,1.491-3.228c13.892-5.052,13.892-5.052,13.892-5.052c1.308-0.494,2.745,0.182,3.217,1.484
		c0.497,1.302-0.184,2.734-1.492,3.203L9.913,13.357L9.913,13.357L9.913,13.357z"/>
	<path fill-rule="evenodd" clip-rule="evenodd" fill="#002661" d="M9.913,20.893c-1.282,0.472-2.747-0.182-3.218-1.487
		c-0.47-1.305,0.183-2.739,1.491-3.209c13.892-5.089,13.892-5.089,13.892-5.089c1.308-0.47,2.745,0.183,3.217,1.488
		c0.497,1.304-0.184,2.74-1.492,3.209L9.913,20.893L9.913,20.893L9.913,20.893z"/>
	<path fill-rule="evenodd" clip-rule="evenodd" fill="#002661" d="M9.913,28.405c-1.282,0.494-2.747-0.182-3.218-1.483
		c-0.47-1.275,0.183-2.733,1.491-3.203c13.892-5.075,13.892-5.075,13.892-5.075c1.308-0.469,2.745,0.208,3.217,1.51
		c0.497,1.275-0.184,2.732-1.492,3.201L9.913,28.405L9.913,28.405L9.913,28.405z"/>
</g>
</svg>
