<?xml version="1.0" encoding="utf-8"?>
<!-- Generator: Adobe Illustrator 16.0.2, SVG Export Plug-In . SVG Version: 6.00 Build 0)  -->
<!DOCTYPE svg PUBLIC "-//W3C//DTD SVG 1.1//EN" "http://www.w3.org/Graphics/SVG/1.1/DTD/svg11.dtd">
<svg version="1.1" id="Layer_1" xmlns="http://www.w3.org/2000/svg" xmlns:xlink="http://www.w3.org/1999/xlink" x="0px" y="0px"
	 width="48px" height="36px" viewBox="0 0 48 36" enable-background="new 0 0 48 36" xml:space="preserve">
<g>
	<defs>
		<rect id="SVGID_1_" width="48" height="36"/>
	</defs>
	<clipPath id="SVGID_2_">
		<use xlink:href="#SVGID_1_"  overflow="visible"/>
	</clipPath>
	<path clip-path="url(#SVGID_2_)" fill-rule="evenodd" clip-rule="evenodd" fill="#DDDDDD" d="M40.413,1.795
		c-32.827,0-32.827,0-32.827,0c-2.806,0-4.77,2.235-4.77,4.751c0,18.161,0,18.161,0,18.161c0,2.514,1.964,4.469,4.77,4.469
		c10.663,0,10.663,0,10.663,0c5.049,5.029,5.049,5.029,5.049,5.029c4.771-5.029,4.771-5.029,4.771-5.029c12.345,0,12.345,0,12.345,0
		c2.807,0,4.771-1.955,4.771-4.469c0-18.161,0-18.161,0-18.161C45.184,4.03,43.22,1.795,40.413,1.795L40.413,1.795z"/>
</g>
</svg>
