<?xml version="1.0" encoding="utf-8"?>
<!-- Generator: Adobe Illustrator 16.0.2, SVG Export Plug-In . SVG Version: 6.00 Build 0)  -->
<!DOCTYPE svg PUBLIC "-//W3C//DTD SVG 1.1//EN" "http://www.w3.org/Graphics/SVG/1.1/DTD/svg11.dtd">
<svg version="1.1" id="Layer_1" xmlns="http://www.w3.org/2000/svg" xmlns:xlink="http://www.w3.org/1999/xlink" x="0px" y="0px"
	 width="48px" height="32px" viewBox="0 0 48 32" enable-background="new 0 0 48 32" xml:space="preserve">
<g>
	<defs>
		<rect id="SVGID_1_" width="48" height="32"/>
	</defs>
	<clipPath id="SVGID_2_">
		<use xlink:href="#SVGID_1_"  overflow="visible"/>
	</clipPath>
	<g clip-path="url(#SVGID_2_)">
		<path fill-rule="evenodd" clip-rule="evenodd" fill="#0B79FF" d="M31.986,12.934c-0.299-0.199-7.047-3.64-7.446-3.839
			c-0.2-0.101-0.349-0.15-0.549-0.15c-0.351,0-0.55,0.15-0.6,0.15c-7.446,3.839-7.446,3.839-7.446,3.839
			c-0.35,0.149-0.749,0.499-0.8,1.048c0,10.071,0,10.071,0,10.071c0,0.498,0.45,0.947,1.001,0.947c1.898,0,1.898,0,1.898,0
			c0.998,0,2.049,0,2.298,0c0.399,0,0.749-0.199,0.85-0.449c0.149-0.199,0.149-0.398,0.149-0.498c0-5.834,0-5.834,0-5.834
			c0-0.1,0.051-0.15,0.15-0.15c5.348,0,5.348,0,5.348,0c0.1,0,0.199,0.051,0.199,0.15c0,5.784,0,5.784,0,5.784c0,0.05,0,0.05,0,0.05
			c0,0.049,0,0.249,0.102,0.498C27.238,24.752,27.59,25,27.939,25c0.049,0,0.049,0,0.049,0c0.6,0,3.848,0,3.848,0
			c0.55,0,0.949-0.449,0.949-0.947c0-2.288,0-10.071,0-10.071C32.785,13.433,32.386,13.083,31.986,12.934z"/>
		<path fill-rule="evenodd" clip-rule="evenodd" fill="#0B79FF" d="M35.285,12.685c0,0-1.05-0.549-2.5-1.297
			c0-1.795,0-1.795,0-1.795c0-0.549-0.399-0.997-0.949-0.997c-1.6,0-1.6,0-1.6,0c-0.498,0-0.947,0.448-0.947,0.997
			c-2.3-1.196-4.449-2.294-4.648-2.443C24.44,7.051,24.191,7,23.991,7c-0.399,0.051-0.649,0.149-0.649,0.149
			c-10.645,5.535-10.645,5.535-10.645,5.535c-0.199,0.1-0.299,0.349-0.15,0.548c0.101,0.2,0.301,0.25,0.5,0.15
			c10.645-5.485,10.645-5.485,10.645-5.485c0.05-0.05,0.15-0.1,0.3-0.1c0.1,0,0.2,0.05,0.3,0.1c0.199,0.1,2.648,1.347,5.097,2.644
			c0.05,0,0.15,0.049,0.249,0.049c0.102,0,0.2-0.049,0.352-0.149c0.1-0.1,0.1-0.249,0.1-0.349c0-0.499,0-0.499,0-0.499
			c0-0.099,0.1-0.199,0.148-0.199c1.6,0,1.6,0,1.6,0c0.101,0,0.15,0.101,0.15,0.199c0,1.895,0,1.895,0,1.895
			c0,0.149,0.051,0.3,0.15,0.399c0.049,0.1,0.15,0.149,0.199,0.149c1.5,0.798,2.599,1.347,2.599,1.347
			c0.05,0.05,0.149,0.05,0.2,0.05c0.15,0,0.25-0.05,0.35-0.2C35.585,13.033,35.484,12.784,35.285,12.685z"/>
	</g>
	<rect clip-path="url(#SVGID_2_)" fill="none" width="48" height="32"/>
</g>
</svg>
