<?xml version="1.0" encoding="utf-8"?>
<!-- Generator: Adobe Illustrator 16.0.2, SVG Export Plug-In . SVG Version: 6.00 Build 0)  -->
<!DOCTYPE svg PUBLIC "-//W3C//DTD SVG 1.1//EN" "http://www.w3.org/Graphics/SVG/1.1/DTD/svg11.dtd">
<svg version="1.1" id="Layer_1" xmlns="http://www.w3.org/2000/svg" xmlns:xlink="http://www.w3.org/1999/xlink" x="0px" y="0px"
	 width="16px" height="16px" viewBox="0 0 16 16" enable-background="new 0 0 16 16" xml:space="preserve">
<g>
	<path fill-rule="evenodd" clip-rule="evenodd" fill="#BFBFBF" d="M8.827,6.36C8.732,6.275,8.613,6.21,8.469,6.166
		c-0.144-0.044-0.314-0.067-0.51-0.067H7.412v2.026h0.579c0.18,0,0.341-0.025,0.478-0.073c0.139-0.049,0.255-0.12,0.349-0.214
		c0.097-0.094,0.167-0.205,0.216-0.334c0.051-0.129,0.074-0.275,0.074-0.436c0-0.146-0.023-0.28-0.07-0.401
		C8.992,6.548,8.921,6.445,8.827,6.36z"/>
	<path fill-rule="evenodd" clip-rule="evenodd" fill="#BFBFBF" d="M11.845,3.509L4.072,3.5c-0.33-0.001-0.576,0.244-0.573,0.573
		l0.021,7.761c0,0.327,0.327,0.656,0.654,0.657l7.75,0.009c0.328,0,0.574-0.244,0.574-0.573L12.5,4.166
		C12.5,3.838,12.17,3.509,11.845,3.509z M10.057,7.792C9.96,8.036,9.817,8.246,9.629,8.425C9.439,8.603,9.204,8.741,8.922,8.839
		c-0.282,0.1-0.609,0.148-0.982,0.148H7.412v1.776H6.363V5.236h1.619c0.358,0,0.676,0.038,0.95,0.116
		c0.274,0.076,0.507,0.191,0.693,0.338c0.188,0.151,0.33,0.335,0.427,0.552c0.099,0.219,0.146,0.47,0.146,0.751
		C10.198,7.283,10.151,7.548,10.057,7.792z"/>
</g>
</svg>
