<?xml version="1.0" encoding="utf-8"?>
<!-- Generator: Adobe Illustrator 16.0.2, SVG Export Plug-In . SVG Version: 6.00 Build 0)  -->
<!DOCTYPE svg PUBLIC "-//W3C//DTD SVG 1.1//EN" "http://www.w3.org/Graphics/SVG/1.1/DTD/svg11.dtd">
<svg version="1.1" id="Layer_1" xmlns="http://www.w3.org/2000/svg" xmlns:xlink="http://www.w3.org/1999/xlink" x="0px" y="0px"
	 width="48px" height="48px" viewBox="0 0 48 48" enable-background="new 0 0 48 48" xml:space="preserve">
<g>
	<defs>
		<rect id="SVGID_1_" width="48" height="48"/>
	</defs>
	<clipPath id="SVGID_2_">
		<use xlink:href="#SVGID_1_"  overflow="visible"/>
	</clipPath>
	<g clip-path="url(#SVGID_2_)">
		<g>
			<path fill-rule="evenodd" clip-rule="evenodd" fill="#00A9D4" d="M24,2.945c-8.476,0-15.346,6.26-15.346,13.98
				c0,3.031,1.062,5.838,3.087,7.982L24,43.945l12.262-19.037c2.025-2.145,3.084-4.951,3.084-7.982
				C39.346,9.205,32.476,2.945,24,2.945L24,2.945z"/>
			<path fill="none" stroke="#2C2C2D" stroke-width="1.9182" stroke-linejoin="round" stroke-miterlimit="10" d="M24,2.945
				c-8.476,0-15.346,6.26-15.346,13.98c0,3.031,1.062,5.838,3.087,7.982L24,43.945l12.262-19.037
				c2.025-2.145,3.084-4.951,3.084-7.982C39.346,9.205,32.476,2.945,24,2.945L24,2.945z"/>
		</g>
		<g>
			<path d="M18.342,24.945V9.959h5.622c1.144,0,2.065,0.154,2.756,0.453c0.693,0.305,1.23,0.771,1.625,1.402
				c0.39,0.631,0.587,1.291,0.587,1.979c0,0.641-0.177,1.244-0.521,1.809c-0.35,0.565-0.871,1.023-1.575,1.371
				c0.908,0.266,1.605,0.718,2.092,1.357c0.487,0.641,0.731,1.398,0.731,2.27c0,0.704-0.15,1.355-0.443,1.959
				c-0.301,0.604-0.665,1.067-1.102,1.395c-0.435,0.327-0.981,0.574-1.643,0.742c-0.653,0.167-1.46,0.25-2.415,0.25H18.342z
				 M20.326,16.256h3.24c0.881,0,1.508-0.057,1.892-0.174c0.504-0.15,0.881-0.398,1.138-0.746c0.258-0.349,0.384-0.783,0.384-1.308
				c0-0.499-0.117-0.937-0.356-1.313c-0.241-0.381-0.578-0.639-1.024-0.777c-0.444-0.14-1.201-0.21-2.279-0.21h-2.993V16.256z
				 M20.326,23.176h3.73c0.641,0,1.092-0.023,1.348-0.07c0.457-0.084,0.841-0.217,1.148-0.408c0.304-0.191,0.557-0.469,0.758-0.833
				c0.193-0.367,0.293-0.788,0.293-1.265c0-0.557-0.144-1.044-0.428-1.457c-0.29-0.412-0.684-0.701-1.193-0.867
				c-0.508-0.168-1.235-0.252-2.189-0.252h-3.467V23.176z"/>
		</g>
	</g>
</g>
</svg>
