<?xml version="1.0" encoding="utf-8"?>
<!-- Generator: Adobe Illustrator 16.0.2, SVG Export Plug-In . SVG Version: 6.00 Build 0)  -->
<!DOCTYPE svg PUBLIC "-//W3C//DTD SVG 1.1//EN" "http://www.w3.org/Graphics/SVG/1.1/DTD/svg11.dtd">
<svg version="1.1" id="Layer_1" xmlns="http://www.w3.org/2000/svg" xmlns:xlink="http://www.w3.org/1999/xlink" x="0px" y="0px"
	 width="32px" height="32px" viewBox="0 0 32 32" enable-background="new 0 0 32 32" xml:space="preserve">
<g>
	<defs>
		<rect id="SVGID_1_" width="32" height="32"/>
	</defs>
	<clipPath id="SVGID_2_">
		<use xlink:href="#SVGID_1_"  overflow="visible"/>
	</clipPath>
	<g clip-path="url(#SVGID_2_)">
		<g>
			<path fill-rule="evenodd" clip-rule="evenodd" fill="#CCCCCC" d="M23.446,10.177c-0.205,0-0.411,0-0.722,0.103
				c-0.828-3.007-3.518-5.078-6.726-5.078c-3.205,0-5.895,2.071-6.723,5.078c-0.311-0.103-0.516-0.103-0.724-0.103
				C6.068,10.177,4,12.25,4,14.737c0,2.489,2.068,4.562,4.553,4.562c0.413,0,0.826-0.415,0.826-0.829
				c0-0.413-0.413-0.828-0.826-0.828c-1.551,0-2.896-1.348-2.896-2.904c0-1.555,1.346-2.902,2.896-2.902
				c0.104,0,0.311,0,0.518,0.104c0,0.724,0,0.724,0,0.724c0,0.416,0.309,0.831,0.828,0.831c0.412,0,0.826-0.415,0.826-0.831
				c0-1.348,0-1.348,0-1.348c0.414-2.59,2.688-4.458,5.274-4.458c2.589,0,4.863,1.868,5.276,4.458c0,1.348,0,1.348,0,1.348
				c0,0.416,0.414,0.831,0.826,0.831c0.519,0,0.828-0.415,0.828-0.831c0-0.724,0-0.724,0-0.724c0.207-0.104,0.415-0.104,0.517-0.104
				c1.553,0,2.898,1.348,2.898,2.902c0,1.557-1.346,2.904-2.898,2.904c-0.411,0-0.826,0.415-0.826,0.828
				c0,0.414,0.415,0.829,0.826,0.829c2.484,0,4.554-2.072,4.554-4.562C28,12.25,25.931,10.177,23.446,10.177L23.446,10.177z"/>
			<path fill-rule="evenodd" clip-rule="evenodd" fill="#CCCCCC" d="M16.75,15.203c-0.429-0.103-0.965,0.207-1.07,0.621
				c-2.571,9.938-2.571,9.938-2.571,9.938c-0.108,0.416,0.214,0.934,0.642,1.037c0.108,0,0.108,0,0.215,0
				c0.428,0,0.75-0.209,0.856-0.621c2.571-9.94,2.571-9.94,2.571-9.94C17.5,15.824,17.178,15.307,16.75,15.203L16.75,15.203z"/>
			<path fill-rule="evenodd" clip-rule="evenodd" fill="#CCCCCC" d="M20.029,17.604c-0.439-0.104-0.988,0.214-1.098,0.638
				c-1.321,5.096-1.321,5.096-1.321,5.096c-0.11,0.425,0.22,0.956,0.659,1.062c0.109,0,0.109,0,0.22,0
				c0.442,0,0.772-0.213,0.882-0.637c1.318-5.095,1.318-5.095,1.318-5.095C20.802,18.241,20.469,17.712,20.029,17.604L20.029,17.604
				z"/>
			<path fill-rule="evenodd" clip-rule="evenodd" fill="#CCCCCC" d="M12.001,17.604c-0.401-0.104-0.9,0.214-1,0.638
				c-1.2,5.096-1.2,5.096-1.2,5.096c-0.101,0.425,0.201,0.956,0.6,1.062c0.101,0,0.101,0,0.2,0c0.4,0,0.7-0.213,0.8-0.637
				c1.2-5.095,1.2-5.095,1.2-5.095C12.701,18.241,12.4,17.712,12.001,17.604L12.001,17.604z"/>
		</g>
	</g>
</g>
</svg>
