<?xml version="1.0" encoding="utf-8"?>
<!-- Generator: Adobe Illustrator 16.0.2, SVG Export Plug-In . SVG Version: 6.00 Build 0)  -->
<!DOCTYPE svg PUBLIC "-//W3C//DTD SVG 1.1//EN" "http://www.w3.org/Graphics/SVG/1.1/DTD/svg11.dtd">
<svg version="1.1" id="Layer_1" xmlns="http://www.w3.org/2000/svg" xmlns:xlink="http://www.w3.org/1999/xlink" x="0px" y="0px"
	 width="32px" height="32px" viewBox="0 0 32 32" enable-background="new 0 0 32 32" xml:space="preserve">
<g>
	<defs>
		<rect id="SVGID_1_" width="32" height="32"/>
	</defs>
	<clipPath id="SVGID_2_">
		<use xlink:href="#SVGID_1_"  overflow="visible"/>
	</clipPath>
	<g id="Dibujo_13_" clip-path="url(#SVGID_2_)">
		<g>
			<g>
				<path fill="#CCCCCC" d="M24.3,18.561c0.392-0.793,0.597-1.664,0.597-2.561c0-3.195-2.599-5.793-5.793-5.793
					c-1.904,0-3.68,0.943-4.757,2.491c-0.069-0.002-0.138-0.009-0.208-0.009c-3.173,0-5.885,2.074-6.75,5.042
					C7.15,17.688,6.9,17.654,6.691,17.654c-2.512,0-4.553,2.043-4.553,4.553s2.041,4.551,4.553,4.551h14.896
					c2.51,0,4.553-2.041,4.553-4.551C26.14,20.714,25.412,19.39,24.3,18.561z M19.104,11.861c2.28,0,4.138,1.856,4.138,4.139
					c0,0.641-0.148,1.261-0.428,1.826c-0.392-0.108-0.803-0.172-1.227-0.172c-0.21,0-0.461,0.033-0.698,0.077
					c-0.666-2.281-2.424-4.028-4.64-4.718C17.01,12.289,18.026,11.861,19.104,11.861z M21.587,25.104H6.691
					c-1.598,0-2.898-1.299-2.898-2.896s1.301-2.896,2.898-2.896c0.112,0,0.297,0.027,0.492,0.067v0.76
					c0,0.458,0.371,0.827,0.828,0.827s0.827-0.369,0.827-0.827v-1.331c0.445-2.589,2.664-4.462,5.3-4.462
					c2.637,0,4.854,1.874,5.3,4.463v1.33c0,0.458,0.37,0.827,0.827,0.827s0.829-0.369,0.829-0.827v-0.759
					c0.194-0.039,0.38-0.068,0.492-0.068c1.596,0,2.896,1.299,2.896,2.896S23.183,25.104,21.587,25.104z"/>
				<path fill="#CCCCCC" d="M19.104,8.553c0.456,0,0.827-0.373,0.827-0.829V6.068c0-0.456-0.371-0.826-0.827-0.826
					s-0.827,0.37-0.827,0.826v1.655C18.276,8.18,18.647,8.553,19.104,8.553z"/>
				<path fill="#CCCCCC" d="M29.035,15.171h-1.654c-0.46,0-0.829,0.372-0.829,0.829s0.369,0.828,0.829,0.828h1.654
					c0.456,0,0.827-0.371,0.827-0.828S29.491,15.171,29.035,15.171z"/>
				<path fill="#CCCCCC" d="M24.956,10.976c0.212,0,0.423-0.081,0.585-0.243l1.17-1.17c0.324-0.322,0.324-0.846,0-1.171
					c-0.323-0.322-0.847-0.322-1.17,0L24.37,9.563c-0.322,0.323-0.322,0.846,0,1.17C24.531,10.895,24.745,10.976,24.956,10.976z"/>
				<path fill="#CCCCCC" d="M12.668,10.732c0.159,0.162,0.371,0.243,0.583,0.243s0.423-0.081,0.586-0.243
					c0.322-0.324,0.322-0.847,0-1.17l-1.169-1.171c-0.325-0.322-0.849-0.322-1.171,0c-0.323,0.325-0.323,0.849,0,1.171
					L12.668,10.732z"/>
			</g>
		</g>
	</g>
</g>
</svg>
