<?xml version="1.0" encoding="utf-8"?>
<!-- Generator: Adobe Illustrator 16.0.2, SVG Export Plug-In . SVG Version: 6.00 Build 0)  -->
<!DOCTYPE svg PUBLIC "-//W3C//DTD SVG 1.1//EN" "http://www.w3.org/Graphics/SVG/1.1/DTD/svg11.dtd">
<svg version="1.1" id="Layer_1" xmlns="http://www.w3.org/2000/svg" xmlns:xlink="http://www.w3.org/1999/xlink" x="0px" y="0px"
	 width="32px" height="32px" viewBox="0 0 32 32" enable-background="new 0 0 32 32" xml:space="preserve">
<g>
	<defs>
		<rect id="SVGID_1_" width="32" height="32"/>
	</defs>
	<clipPath id="SVGID_2_">
		<use xlink:href="#SVGID_1_"  overflow="visible"/>
	</clipPath>
	<g id="Dibujo_30_" clip-path="url(#SVGID_2_)">
		<g>
			<path fill="#CCCCCC" d="M23.447,10.207c-0.208,0-0.459,0.033-0.697,0.076C21.882,7.314,19.172,5.242,16,5.242
				c-3.171,0-5.884,2.072-6.751,5.041c-0.236-0.043-0.487-0.076-0.696-0.076C6.042,10.207,4,12.25,4,14.759
				c0,2.51,2.042,4.552,4.553,4.552h4.661l-1.626,2.438c-0.17,0.254-0.186,0.58-0.042,0.85c0.145,0.27,0.426,0.437,0.73,0.437h0.938
				l-1.626,2.437c-0.253,0.381-0.149,0.896,0.23,1.149c0.141,0.093,0.3,0.138,0.458,0.138c0.267,0,0.528-0.129,0.688-0.367
				l2.482-3.725c0.17-0.254,0.186-0.581,0.042-0.851c-0.146-0.269-0.425-0.437-0.729-0.437h-0.938l1.379-2.068h2.149l-0.798,1.196
				c-0.17,0.254-0.185,0.579-0.041,0.85c0.145,0.269,0.426,0.436,0.729,0.436h0.938l-0.798,1.196
				c-0.253,0.381-0.15,0.895,0.229,1.147c0.142,0.097,0.299,0.14,0.458,0.14c0.268,0,0.529-0.129,0.689-0.368l1.654-2.484
				c0.17-0.253,0.187-0.579,0.043-0.849c-0.145-0.268-0.426-0.437-0.73-0.437h-0.938l0.553-0.827h4.107
				c2.512,0,4.553-2.042,4.553-4.552C28,12.25,25.959,10.207,23.447,10.207z M23.447,17.654H8.553c-1.598,0-2.897-1.3-2.897-2.896
				c0-1.599,1.3-2.897,2.897-2.897c0.113,0,0.298,0.029,0.491,0.067v0.761c0,0.457,0.372,0.827,0.83,0.827
				c0.457,0,0.827-0.37,0.827-0.827v-1.333c0.444-2.586,2.662-4.46,5.299-4.46c2.636,0,4.854,1.874,5.3,4.46v1.333
				c0,0.457,0.371,0.827,0.827,0.827c0.457,0,0.83-0.37,0.83-0.827v-0.761c0.193-0.036,0.379-0.067,0.49-0.067
				c1.599,0,2.898,1.299,2.898,2.897C26.346,16.354,25.046,17.654,23.447,17.654z"/>
		</g>
	</g>
</g>
</svg>
