<?xml version="1.0" encoding="utf-8"?>
<!-- Generator: Adobe Illustrator 16.0.2, SVG Export Plug-In . SVG Version: 6.00 Build 0)  -->
<!DOCTYPE svg PUBLIC "-//W3C//DTD SVG 1.1//EN" "http://www.w3.org/Graphics/SVG/1.1/DTD/svg11.dtd">
<svg version="1.1" id="Layer_1" xmlns="http://www.w3.org/2000/svg" xmlns:xlink="http://www.w3.org/1999/xlink" x="0px" y="0px"
	 width="32px" height="32px" viewBox="0 0 32 32" enable-background="new 0 0 32 32" xml:space="preserve">
<g>
	<defs>
		<rect id="SVGID_1_" x="0" width="32" height="32"/>
	</defs>
	<clipPath id="SVGID_2_">
		<use xlink:href="#SVGID_1_"  overflow="visible"/>
	</clipPath>
	<g id="Dibujo_28_" clip-path="url(#SVGID_2_)">
		<g>
			<g>
				<path fill="#CCCCCC" d="M24.789,16.615c1.215-1.076,1.969-2.646,1.969-4.339c0-0.456-0.37-0.829-0.826-0.829
					c-2.281,0-4.139-1.854-4.139-4.138c0-0.454-0.37-0.827-0.827-0.827c-2.929,0-5.35,2.187-5.734,5.012
					c-2.834,0.305-5.187,2.271-5.982,4.994c-0.237-0.043-0.488-0.074-0.697-0.074C6.042,16.414,4,18.457,4,20.965
					c0,2.51,2.042,4.554,4.553,4.554h14.895c2.512,0,4.553-2.044,4.553-4.554C28,18.924,26.646,17.189,24.789,16.615z M20.207,8.207
					c0.389,2.478,2.352,4.44,4.827,4.827c-0.255,1.343-1.177,2.484-2.427,3.03c-0.892-2.462-3.081-4.222-5.708-4.554
					C17.215,9.84,18.535,8.518,20.207,8.207z M23.447,23.863H8.552c-1.598,0-2.897-1.299-2.897-2.898c0-1.596,1.3-2.896,2.897-2.896
					c0.113,0,0.298,0.028,0.492,0.068v0.761c0,0.457,0.372,0.827,0.829,0.827s0.827-0.37,0.827-0.827v-1.334
					c0.445-2.587,2.664-4.459,5.299-4.459c2.637,0,4.857,1.874,5.301,4.462v1.331c0,0.457,0.37,0.827,0.827,0.827
					c0.456,0,0.829-0.37,0.829-0.827v-0.761c0.193-0.039,0.379-0.068,0.49-0.068c1.599,0,2.898,1.301,2.898,2.896
					C26.346,22.564,25.046,23.863,23.447,23.863z"/>
			</g>
		</g>
	</g>
</g>
</svg>
